<svg width="24" height="24" viewBox="0 0 24 24" fill="none" xmlns="http://www.w3.org/2000/svg">
<path fill-rule="evenodd" clip-rule="evenodd" d="M2 8C2 5.23858 4.23858 3 7 3H17C19.7614 3 22 5.23858 22 8V17C22 19.7614 19.7614 22 17 22H7C4.23858 22 2 19.7614 2 17V8ZM7 5C5.34315 5 4 6.34315 4 8V17C4 18.6569 5.34315 20 7 20H17C18.6569 20 20 18.6569 20 17V8C20 6.34315 18.6569 5 17 5H7Z" fill="#2B2B2B"/>
<path fill-rule="evenodd" clip-rule="evenodd" d="M8 2C8.55228 2 9 2.44772 9 3V6C9 6.55228 8.55228 7 8 7C7.44772 7 7 6.55228 7 6V3C7 2.44772 7.44772 2 8 2Z" fill="#2B2B2B"/>
<path fill-rule="evenodd" clip-rule="evenodd" d="M16 2C16.5523 2 17 2.44772 17 3V6C17 6.55228 16.5523 7 16 7C15.4477 7 15 6.55228 15 6V3C15 2.44772 15.4477 2 16 2Z" fill="#2B2B2B"/>
<path fill-rule="evenodd" clip-rule="evenodd" d="M12 9C12.5523 9 13 9.44772 13 10V12H15C15.5523 12 16 12.4477 16 13C16 13.5523 15.5523 14 15 14H13V16C13 16.5523 12.5523 17 12 17C11.4477 17 11 16.5523 11 16L11 14H9C8.44772 14 8 13.5523 8 13C8 12.4477 8.44772 12 9 12H11V10C11 9.44772 11.4477 9 12 9Z" fill="#2B2B2B"/>
</svg>
