<svg width="20" height="20" viewBox="0 0 20 20" fill="none" xmlns="http://www.w3.org/2000/svg">
<path d="M17.675 13.2417C17.1449 14.4954 16.3157 15.6002 15.2599 16.4594C14.2041 17.3187 12.954 17.9062 11.6187 18.1707C10.2834 18.4351 8.90369 18.3685 7.60013 17.9765C6.29656 17.5845 5.10886 16.8792 4.14086 15.9222C3.17285 14.9652 2.45402 13.7856 2.0472 12.4866C1.64039 11.1876 1.55797 9.80874 1.80717 8.47053C2.05637 7.13232 2.62959 5.87553 3.47671 4.81003C4.32384 3.74453 5.41907 2.90277 6.66667 2.35834" stroke="#5E5E5E" stroke-opacity="0.8" stroke-width="2" stroke-linecap="round" stroke-linejoin="round"/>
<path d="M18.3333 10C18.3333 8.90567 18.1178 7.82204 17.699 6.81099C17.2802 5.79994 16.6664 4.88129 15.8926 4.10746C15.1187 3.33364 14.2001 2.71981 13.189 2.30102C12.178 1.88224 11.0943 1.66669 10 1.66669V10H18.3333Z" stroke="#5E5E5E" stroke-opacity="0.8" stroke-width="2" stroke-linecap="round" stroke-linejoin="round"/>
</svg>
