<svg width="20" height="20" viewBox="0 0 20 20" fill="none" xmlns="http://www.w3.org/2000/svg">
<path fill-rule="evenodd" clip-rule="evenodd" d="M2.5 9.99996C2.5 9.53972 2.8731 9.16663 3.33333 9.16663H16.6667C17.1269 9.16663 17.5 9.53972 17.5 9.99996C17.5 10.4602 17.1269 10.8333 16.6667 10.8333H3.33333C2.8731 10.8333 2.5 10.4602 2.5 9.99996Z" fill="white"/>
<path fill-rule="evenodd" clip-rule="evenodd" d="M9.99998 2.5C10.4602 2.5 10.8333 2.8731 10.8333 3.33333L10.8333 16.6667C10.8333 17.1269 10.4602 17.5 9.99998 17.5C9.53974 17.5 9.16665 17.1269 9.16665 16.6667L9.16665 3.33333C9.16665 2.8731 9.53974 2.5 9.99998 2.5Z" fill="white"/>
</svg>
