<svg width="24" height="21" viewBox="0 0 24 21" fill="none" xmlns="http://www.w3.org/2000/svg">
<path d="M7.99996 14.2475L12 10.2475L16 14.2475M12 10.2475V19.2475M20.39 16.6375C21.3653 16.1058 22.1358 15.2644 22.5798 14.2462C23.0239 13.2279 23.1162 12.0908 22.8422 11.0142C22.5682 9.93769 21.9434 8.98305 21.0666 8.30099C20.1898 7.61892 19.1108 7.24828 18 7.24754H16.74C16.4373 6.07678 15.8731 4.98988 15.0899 4.06854C14.3067 3.14719 13.3248 2.41539 12.2181 1.92815C11.1113 1.44091 9.90851 1.2109 8.70008 1.25542C7.49164 1.29995 6.30903 1.61784 5.24114 2.18521C4.17325 2.75257 3.24787 3.55465 2.53458 4.53112C1.82129 5.5076 1.33865 6.63308 1.12294 7.82294C0.90723 9.01279 0.964065 10.2361 1.28917 11.4008C1.61428 12.5655 2.1992 13.6414 2.99996 14.5475" stroke="#1E1E1E" stroke-width="2.5" stroke-linecap="round" stroke-linejoin="round"/>
</svg>
